<mxfile host="app.diagrams.net" agent="Mozilla/5.0 (Windows NT 10.0; Win64; x64) AppleWebKit/537.36 (KHTML, like Gecko) Chrome/139.0.0.0 Safari/537.36" version="28.2.0" pages="2">
  <diagram name="Side-1" id="IlZc33EODgH9ZdidehJS">
    <mxGraphModel dx="874" dy="575" grid="1" gridSize="10" guides="1" tooltips="1" connect="1" arrows="1" fold="1" page="1" pageScale="1" pageWidth="827" pageHeight="1169" math="0" shadow="0">
      <root>
        <mxCell id="0" />
        <mxCell id="1" parent="0" />
        <mxCell id="MKHQsY4V9M4oByWDd4cK-59" style="edgeStyle=orthogonalEdgeStyle;rounded=0;orthogonalLoop=1;jettySize=auto;html=1;entryX=0;entryY=0.5;entryDx=0;entryDy=0;" parent="1" source="MKHQsY4V9M4oByWDd4cK-60" target="MKHQsY4V9M4oByWDd4cK-62" edge="1">
          <mxGeometry relative="1" as="geometry" />
        </mxCell>
        <mxCell id="MKHQsY4V9M4oByWDd4cK-60" value="start" style="rounded=1;whiteSpace=wrap;html=1;" parent="1" vertex="1">
          <mxGeometry x="100" y="350" width="70" height="60" as="geometry" />
        </mxCell>
        <mxCell id="MKHQsY4V9M4oByWDd4cK-61" style="edgeStyle=orthogonalEdgeStyle;rounded=0;orthogonalLoop=1;jettySize=auto;html=1;entryX=0;entryY=0.5;entryDx=0;entryDy=0;" parent="1" source="MKHQsY4V9M4oByWDd4cK-62" target="MKHQsY4V9M4oByWDd4cK-65" edge="1">
          <mxGeometry relative="1" as="geometry" />
        </mxCell>
        <mxCell id="MKHQsY4V9M4oByWDd4cK-62" value="Check altitude" style="rounded=0;whiteSpace=wrap;html=1;" parent="1" vertex="1">
          <mxGeometry x="200" y="360" width="86" height="40" as="geometry" />
        </mxCell>
        <mxCell id="MKHQsY4V9M4oByWDd4cK-63" style="edgeStyle=orthogonalEdgeStyle;rounded=0;orthogonalLoop=1;jettySize=auto;html=1;" parent="1" source="MKHQsY4V9M4oByWDd4cK-65" target="MKHQsY4V9M4oByWDd4cK-67" edge="1">
          <mxGeometry relative="1" as="geometry">
            <mxPoint x="380" y="480" as="targetPoint" />
          </mxGeometry>
        </mxCell>
        <mxCell id="MKHQsY4V9M4oByWDd4cK-64" style="edgeStyle=orthogonalEdgeStyle;rounded=0;orthogonalLoop=1;jettySize=auto;html=1;" parent="1" source="MKHQsY4V9M4oByWDd4cK-65" target="MKHQsY4V9M4oByWDd4cK-69" edge="1">
          <mxGeometry relative="1" as="geometry">
            <mxPoint x="470" y="380" as="targetPoint" />
          </mxGeometry>
        </mxCell>
        <mxCell id="MKHQsY4V9M4oByWDd4cK-65" value="is altitude &amp;gt; 100" style="rhombus;whiteSpace=wrap;html=1;" parent="1" vertex="1">
          <mxGeometry x="330" y="330" width="100" height="100" as="geometry" />
        </mxCell>
        <mxCell id="MKHQsY4V9M4oByWDd4cK-66" style="edgeStyle=orthogonalEdgeStyle;rounded=0;orthogonalLoop=1;jettySize=auto;html=1;" parent="1" source="MKHQsY4V9M4oByWDd4cK-67" target="MKHQsY4V9M4oByWDd4cK-73" edge="1">
          <mxGeometry relative="1" as="geometry">
            <mxPoint x="290" y="480" as="targetPoint" />
          </mxGeometry>
        </mxCell>
        <mxCell id="MKHQsY4V9M4oByWDd4cK-67" value="yes" style="rounded=0;whiteSpace=wrap;html=1;" parent="1" vertex="1">
          <mxGeometry x="350" y="460" width="60" height="40" as="geometry" />
        </mxCell>
        <mxCell id="MKHQsY4V9M4oByWDd4cK-68" style="edgeStyle=orthogonalEdgeStyle;rounded=0;orthogonalLoop=1;jettySize=auto;html=1;" parent="1" source="MKHQsY4V9M4oByWDd4cK-69" target="MKHQsY4V9M4oByWDd4cK-72" edge="1">
          <mxGeometry relative="1" as="geometry">
            <mxPoint x="560" y="380" as="targetPoint" />
          </mxGeometry>
        </mxCell>
        <mxCell id="MKHQsY4V9M4oByWDd4cK-69" value="no" style="rounded=0;whiteSpace=wrap;html=1;" parent="1" vertex="1">
          <mxGeometry x="460" y="360" width="60" height="40" as="geometry" />
        </mxCell>
        <mxCell id="MKHQsY4V9M4oByWDd4cK-70" style="edgeStyle=orthogonalEdgeStyle;rounded=0;orthogonalLoop=1;jettySize=auto;html=1;" parent="1" source="MKHQsY4V9M4oByWDd4cK-72" target="MKHQsY4V9M4oByWDd4cK-76" edge="1">
          <mxGeometry relative="1" as="geometry">
            <mxPoint x="590" y="280" as="targetPoint" />
          </mxGeometry>
        </mxCell>
        <mxCell id="MKHQsY4V9M4oByWDd4cK-71" style="edgeStyle=orthogonalEdgeStyle;rounded=0;orthogonalLoop=1;jettySize=auto;html=1;" parent="1" source="MKHQsY4V9M4oByWDd4cK-72" target="MKHQsY4V9M4oByWDd4cK-80" edge="1">
          <mxGeometry relative="1" as="geometry">
            <mxPoint x="590" y="470" as="targetPoint" />
          </mxGeometry>
        </mxCell>
        <mxCell id="MKHQsY4V9M4oByWDd4cK-72" value="is altitude &amp;gt; 0" style="rhombus;whiteSpace=wrap;html=1;" parent="1" vertex="1">
          <mxGeometry x="540" y="330" width="100" height="100" as="geometry" />
        </mxCell>
        <mxCell id="MKHQsY4V9M4oByWDd4cK-73" value="thrusters off" style="rounded=0;whiteSpace=wrap;html=1;" parent="1" vertex="1">
          <mxGeometry x="200" y="470" width="100" height="20" as="geometry" />
        </mxCell>
        <mxCell id="MKHQsY4V9M4oByWDd4cK-74" style="edgeStyle=orthogonalEdgeStyle;rounded=0;orthogonalLoop=1;jettySize=auto;html=1;entryX=0.581;entryY=1.075;entryDx=0;entryDy=0;entryPerimeter=0;" parent="1" source="MKHQsY4V9M4oByWDd4cK-73" target="MKHQsY4V9M4oByWDd4cK-62" edge="1">
          <mxGeometry relative="1" as="geometry" />
        </mxCell>
        <mxCell id="MKHQsY4V9M4oByWDd4cK-75" style="edgeStyle=orthogonalEdgeStyle;rounded=0;orthogonalLoop=1;jettySize=auto;html=1;" parent="1" source="MKHQsY4V9M4oByWDd4cK-76" target="MKHQsY4V9M4oByWDd4cK-77" edge="1">
          <mxGeometry relative="1" as="geometry">
            <mxPoint x="490" y="280" as="targetPoint" />
          </mxGeometry>
        </mxCell>
        <mxCell id="MKHQsY4V9M4oByWDd4cK-76" value="yes" style="rounded=0;whiteSpace=wrap;html=1;" parent="1" vertex="1">
          <mxGeometry x="560" y="260" width="60" height="40" as="geometry" />
        </mxCell>
        <mxCell id="MKHQsY4V9M4oByWDd4cK-77" value="Thrusters on" style="rounded=0;whiteSpace=wrap;html=1;" parent="1" vertex="1">
          <mxGeometry x="210" y="260" width="80" height="40" as="geometry" />
        </mxCell>
        <mxCell id="MKHQsY4V9M4oByWDd4cK-78" style="edgeStyle=orthogonalEdgeStyle;rounded=0;orthogonalLoop=1;jettySize=auto;html=1;entryX=0.581;entryY=0.088;entryDx=0;entryDy=0;entryPerimeter=0;" parent="1" source="MKHQsY4V9M4oByWDd4cK-77" target="MKHQsY4V9M4oByWDd4cK-62" edge="1">
          <mxGeometry relative="1" as="geometry" />
        </mxCell>
        <mxCell id="MKHQsY4V9M4oByWDd4cK-79" style="edgeStyle=orthogonalEdgeStyle;rounded=0;orthogonalLoop=1;jettySize=auto;html=1;entryX=0.5;entryY=1;entryDx=0;entryDy=0;" parent="1" source="MKHQsY4V9M4oByWDd4cK-80" target="MKHQsY4V9M4oByWDd4cK-73" edge="1">
          <mxGeometry relative="1" as="geometry" />
        </mxCell>
        <mxCell id="MKHQsY4V9M4oByWDd4cK-80" value="no" style="rounded=0;whiteSpace=wrap;html=1;" parent="1" vertex="1">
          <mxGeometry x="560" y="460" width="60" height="40" as="geometry" />
        </mxCell>
      </root>
    </mxGraphModel>
  </diagram>
  <diagram id="uMeycUXQsQJizNAl5SGd" name="Side-2">
    <mxGraphModel dx="874" dy="575" grid="1" gridSize="10" guides="1" tooltips="1" connect="1" arrows="1" fold="1" page="1" pageScale="1" pageWidth="827" pageHeight="1169" math="0" shadow="0">
      <root>
        <mxCell id="0" />
        <mxCell id="1" parent="0" />
        <mxCell id="Nsoor_5cex0o4ScYUreT-2" style="edgeStyle=orthogonalEdgeStyle;rounded=0;orthogonalLoop=1;jettySize=auto;html=1;" edge="1" parent="1" source="Nsoor_5cex0o4ScYUreT-1">
          <mxGeometry relative="1" as="geometry">
            <mxPoint x="140" y="270" as="targetPoint" />
          </mxGeometry>
        </mxCell>
        <mxCell id="Nsoor_5cex0o4ScYUreT-1" value="start" style="rounded=1;whiteSpace=wrap;html=1;" vertex="1" parent="1">
          <mxGeometry x="30" y="240" width="50" height="60" as="geometry" />
        </mxCell>
        <mxCell id="Nsoor_5cex0o4ScYUreT-4" style="edgeStyle=orthogonalEdgeStyle;rounded=0;orthogonalLoop=1;jettySize=auto;html=1;" edge="1" parent="1" target="Nsoor_5cex0o4ScYUreT-5">
          <mxGeometry relative="1" as="geometry">
            <mxPoint x="320" y="270" as="targetPoint" />
            <mxPoint x="230" y="270" as="sourcePoint" />
          </mxGeometry>
        </mxCell>
        <mxCell id="Nsoor_5cex0o4ScYUreT-8" style="edgeStyle=orthogonalEdgeStyle;rounded=0;orthogonalLoop=1;jettySize=auto;html=1;" edge="1" parent="1" source="Nsoor_5cex0o4ScYUreT-5" target="Nsoor_5cex0o4ScYUreT-9">
          <mxGeometry relative="1" as="geometry">
            <mxPoint x="450" y="270" as="targetPoint" />
          </mxGeometry>
        </mxCell>
        <mxCell id="Nsoor_5cex0o4ScYUreT-5" value="how many kilos of packages do we expect?" style="rounded=0;whiteSpace=wrap;html=1;" vertex="1" parent="1">
          <mxGeometry x="260" y="240" width="120" height="60" as="geometry" />
        </mxCell>
        <mxCell id="Nsoor_5cex0o4ScYUreT-6" value="how many moters are carrying the packages?" style="rounded=0;whiteSpace=wrap;html=1;" vertex="1" parent="1">
          <mxGeometry x="120" y="240" width="120" height="60" as="geometry" />
        </mxCell>
        <mxCell id="Nsoor_5cex0o4ScYUreT-10" style="edgeStyle=orthogonalEdgeStyle;rounded=0;orthogonalLoop=1;jettySize=auto;html=1;" edge="1" parent="1" source="Nsoor_5cex0o4ScYUreT-9">
          <mxGeometry relative="1" as="geometry">
            <mxPoint x="540" y="270" as="targetPoint" />
          </mxGeometry>
        </mxCell>
        <mxCell id="Nsoor_5cex0o4ScYUreT-9" value="convert input into numerical values" style="rounded=0;whiteSpace=wrap;html=1;" vertex="1" parent="1">
          <mxGeometry x="410" y="240" width="120" height="60" as="geometry" />
        </mxCell>
        <mxCell id="Nsoor_5cex0o4ScYUreT-13" style="edgeStyle=orthogonalEdgeStyle;rounded=0;orthogonalLoop=1;jettySize=auto;html=1;" edge="1" parent="1" source="Nsoor_5cex0o4ScYUreT-19">
          <mxGeometry relative="1" as="geometry">
            <mxPoint x="600" y="130" as="targetPoint" />
            <mxPoint x="600" y="240" as="sourcePoint" />
          </mxGeometry>
        </mxCell>
        <mxCell id="Nsoor_5cex0o4ScYUreT-14" value="yes&lt;div&gt;&lt;br&gt;&lt;/div&gt;" style="edgeLabel;html=1;align=center;verticalAlign=middle;resizable=0;points=[];" vertex="1" connectable="0" parent="Nsoor_5cex0o4ScYUreT-13">
          <mxGeometry x="0.4663" y="1" relative="1" as="geometry">
            <mxPoint x="1" y="31" as="offset" />
          </mxGeometry>
        </mxCell>
        <mxCell id="Nsoor_5cex0o4ScYUreT-16" style="edgeStyle=orthogonalEdgeStyle;rounded=0;orthogonalLoop=1;jettySize=auto;html=1;" edge="1" parent="1">
          <mxGeometry relative="1" as="geometry">
            <mxPoint x="600" y="420" as="targetPoint" />
            <mxPoint x="600" y="300" as="sourcePoint" />
          </mxGeometry>
        </mxCell>
        <mxCell id="Nsoor_5cex0o4ScYUreT-17" value="no&lt;div&gt;&lt;br&gt;&lt;/div&gt;" style="edgeLabel;html=1;align=center;verticalAlign=middle;resizable=0;points=[];" vertex="1" connectable="0" parent="Nsoor_5cex0o4ScYUreT-16">
          <mxGeometry x="-0.2697" y="-2" relative="1" as="geometry">
            <mxPoint as="offset" />
          </mxGeometry>
        </mxCell>
        <mxCell id="Nsoor_5cex0o4ScYUreT-15" value="Print: the conveyor belt cannot carry the packages" style="rounded=0;whiteSpace=wrap;html=1;" vertex="1" parent="1">
          <mxGeometry x="540" y="70" width="120" height="60" as="geometry" />
        </mxCell>
        <mxCell id="Nsoor_5cex0o4ScYUreT-18" value="Print: the conveyor belt can carry the packages" style="whiteSpace=wrap;html=1;" vertex="1" parent="1">
          <mxGeometry x="540" y="390" width="120" height="60" as="geometry" />
        </mxCell>
        <mxCell id="Nsoor_5cex0o4ScYUreT-20" value="" style="edgeStyle=orthogonalEdgeStyle;rounded=0;orthogonalLoop=1;jettySize=auto;html=1;" edge="1" parent="1" target="Nsoor_5cex0o4ScYUreT-19">
          <mxGeometry relative="1" as="geometry">
            <mxPoint x="600" y="130" as="targetPoint" />
            <mxPoint x="600" y="240" as="sourcePoint" />
          </mxGeometry>
        </mxCell>
        <mxCell id="Nsoor_5cex0o4ScYUreT-19" value="is weight of packages in kg / number of moters &amp;gt; 5.6?" style="rhombus;whiteSpace=wrap;html=1;" vertex="1" parent="1">
          <mxGeometry x="540" y="210" width="110" height="120" as="geometry" />
        </mxCell>
      </root>
    </mxGraphModel>
  </diagram>
</mxfile>
